<?xml version="1.0" encoding="utf-8"?>
<!-- Uploaded to: SVG Repo, www.svgrepo.com, Generator: SVG Repo Mixer Tools -->
<svg fill="#000000" width="800px" height="800px" viewBox="0 0 32 32" version="1.1" xmlns="http://www.w3.org/2000/svg">
<title>addstar</title>
<path d="M2.438 24.563h17.531c1.344 0 2.438-1.094 2.438-2.438v-12.281c0-1.344-1.094-2.438-2.438-2.438h-17.531c-1.344 0-2.438 1.094-2.438 2.438v12.281c0 1.344 1.094 2.438 2.438 2.438zM1.313 22.125v-12.281c0-0.594 0.531-1.094 1.125-1.094h17.531c0.594 0 1.125 0.5 1.125 1.094v12.281c0 0.594-0.531 1.094-1.125 1.094h-17.531c-0.594 0-1.125-0.5-1.125-1.094zM4.25 21.531l3.563-1.875 3.563 1.875-0.688-3.969 2.875-2.781-3.969-0.625-1.781-3.563-1.75 3.563-4 0.625 2.875 2.781zM17.563 16h2.5v1.406h-2.5v2.531h-1.438v-2.531h-2.531v-1.406h2.531v-2.531h1.438v2.531z"></path>
</svg>