<?xml version="1.0" encoding="iso-8859-1"?>
<!-- Uploaded to: SVG Repo, www.svgrepo.com, Generator: SVG Repo Mixer Tools -->
<!DOCTYPE svg PUBLIC "-//W3C//DTD SVG 1.1//EN" "http://www.w3.org/Graphics/SVG/1.1/DTD/svg11.dtd">
<svg fill="#000000" height="800px" width="800px" version="1.1" id="Capa_1" xmlns="http://www.w3.org/2000/svg" xmlns:xlink="http://www.w3.org/1999/xlink" 
	 viewBox="0 0 408.346 408.346" xml:space="preserve">
<g>
	<path d="M157.502,119.135l-29.472-5.896c-1.49-1.704-3.323-3.076-5.363-4.039c2.319-2.593,4.285-5.211,5.781-7.379
		c3.604-5.228,6.604-10.859,8.684-16.293c1.026-2.291,1.893-4.593,2.605-6.852c2.791-2.342,4.436-5.845,4.436-9.518v-8.996
		c0-2.586-0.807-5.107-2.299-7.204V40.293C141.873,18.075,123.797,0,101.576,0H88.512C66.295,0,48.217,18.075,48.217,40.293v12.669
		c-1.488,2.096-2.303,4.618-2.303,7.202v8.996c0,3.672,1.643,7.168,4.441,9.516c0.71,2.254,1.58,4.562,2.606,6.857
		c2.075,5.431,5.077,11.063,8.684,16.287c1.498,2.176,3.466,4.796,5.794,7.396c-2.033,0.965-3.854,2.335-5.341,4.03l-29.03,5.881
		c-7.666,1.552-13.179,8.29-13.179,16.119v106.456c0,2.463,0.546,4.802,1.516,6.896v11.667c0,7.943,6.44,14.389,14.388,14.389
		c2.898,0,5.598-0.866,7.855-2.342v110.204c0,14.266,11.565,25.829,25.832,25.829c14.258,0,25.822-11.564,25.822-25.829
		c0,14.266,11.559,25.829,25.83,25.829c14.26,0,25.818-11.564,25.818-25.829V272.313c2.264,1.476,4.961,2.342,7.861,2.342
		c7.949,0,14.385-6.446,14.385-14.389v-11.667c0.979-2.096,1.521-4.433,1.521-6.896V135.263
		C170.718,127.424,165.184,120.671,157.502,119.135z M87.313,146.105c-0.107,1.053-0.851,1.936-1.876,2.219
		c-0.229,0.066-0.46,0.095-0.692,0.095c-0.799,0-1.569-0.369-2.06-1.026l-7.262-9.629c-0.335-0.447-0.518-0.995-0.518-1.557
		l0.008-15.429c0.002-0.907,0.477-1.745,1.253-2.215c0.772-0.467,1.737-0.491,2.538-0.071c2.112,1.12,4.223,1.87,6.271,2.231
		c1.229,0.221,2.129,1.294,2.129,2.544v6.437c0.371,0.149,0.705,0.375,0.976,0.674c0.49,0.546,0.727,1.269,0.65,1.994
		L87.313,146.105z M115.173,136.21c0,0.56-0.18,1.107-0.519,1.553l-7.245,9.62c-0.498,0.658-1.265,1.033-2.062,1.033
		c-0.231,0-0.469-0.034-0.699-0.095c-1.022-0.286-1.766-1.167-1.873-2.225l-1.412-13.724c-0.076-0.725,0.159-1.448,0.648-1.994
		c0.268-0.3,0.604-0.525,0.977-0.674v-6.437c0-1.25,0.898-2.323,2.13-2.544c2.042-0.362,4.151-1.111,6.266-2.229
		c0.805-0.419,1.767-0.396,2.54,0.071c0.778,0.468,1.249,1.308,1.249,2.215V136.21z M117.28,93.801
		c-6.315,9.16-12.229,13.261-15.3,13.261H88.107c-3.067,0-8.986-4.102-15.302-13.261c-4.983-7.229-8.451-15.227-9.264-21.402
		L63.4,71.33l-2.506-1.627c-0.733-0.477-1.177-1.289-1.177-2.167v-4.248c0-1.428,1.157-2.584,2.585-2.584h1.051v-4.607
		c0-0.98,0.555-1.872,1.43-2.311c3.558-1.772,10.616-4.753,17.924-4.753c5.822,0,10.657,1.94,14.363,5.765
		c4.611,4.771,9.935,7.189,15.804,7.189c3.333,0,6.765-0.785,10.22-2.335c0.799-0.358,1.723-0.288,2.462,0.188
		c0.345,0.223,0.62,0.519,0.825,0.865h1.408c1.426,0,2.586,1.156,2.586,2.584v4.249c0,0.877-0.446,1.689-1.178,2.166l-2.504,1.627
		l-0.144,1.069C125.732,78.572,122.267,86.571,117.28,93.801z"/>
	<path d="M187.086,2.803c-1.147,0-2.289,0.024-3.432,0.043V35.9c1.152-0.23,2.298-0.356,3.432-0.356
		c13.51,0,28.565,16.521,40.273,44.194c4.211,9.951,7.846,20.93,10.875,32.701c-16.49-1.919-33.655-2.912-51.148-2.912
		c-1.146,0-2.288,0.016-3.432,0.024v32.746c1.145-0.009,2.283-0.03,3.432-0.03c20.051,0,39.542,1.387,57.863,4.043
		c2.656,18.321,4.043,37.812,4.043,57.863s-1.387,39.542-4.043,57.863c-18.321,2.656-37.813,4.043-57.863,4.043
		c-1.148,0-2.287-0.021-3.432-0.03v32.746c1.144,0.009,2.285,0.024,3.432,0.024c17.493,0,34.658-0.993,51.148-2.912
		c-3.029,11.771-6.664,22.75-10.875,32.701c-11.708,27.673-26.764,44.194-40.273,44.194c-1.134,0-2.279-0.126-3.432-0.356v33.052
		c1.143,0.019,2.284,0.044,3.432,0.044c111.036,0,201.37-90.334,201.37-201.37S298.122,2.803,187.086,2.803z M247.505,46.744
		c44.458,17.121,79.89,52.552,97.011,97.01c-6.148-3.553-12.893-6.9-20.236-10.007c-15.239-6.448-32.494-11.696-51.127-15.641
		c-3.944-18.632-9.192-35.888-15.641-51.126C254.405,59.638,251.059,52.893,247.505,46.744z M247.505,361.602
		c3.554-6.148,6.9-12.893,10.007-20.236c6.448-15.239,11.696-32.494,15.641-51.127c18.633-3.944,35.888-9.193,51.126-15.641
		c7.343-3.107,14.089-6.454,20.237-10.008C327.395,309.049,291.963,344.481,247.505,361.602z M311.522,244.447
		c-9.951,4.211-20.93,7.845-32.701,10.875c1.919-16.49,2.912-33.655,2.912-51.148s-0.993-34.658-2.912-51.148
		c11.771,3.03,22.75,6.664,32.7,10.875c27.673,11.708,44.194,26.764,44.194,40.273C355.715,217.682,339.193,232.738,311.522,244.447
		z"/>
</g>
</svg>