<?xml version="1.0" encoding="UTF-8"?>
<svg xmlns="http://www.w3.org/2000/svg" viewBox="0 0 1080 1080">
  <defs>
    <style>
      .cls-1 {
        isolation: isolate;
      }

      .cls-2 {
        fill: #6bbd45;
      }

      .cls-2, .cls-3, .cls-4, .cls-5, .cls-6, .cls-7, .cls-8 {
        stroke-width: 0px;
      }

      .cls-2, .cls-4, .cls-8 {
        mix-blend-mode: multiply;
      }

      .cls-3 {
        fill: #2e4524;
      }

      .cls-4 {
        fill: #437136;
      }

      .cls-5 {
        fill: #3d6130;
      }

      .cls-6 {
        fill: #324f27;
      }

      .cls-7 {
        fill: #548a3e;
      }

      .cls-8 {
        fill: #599c43;
      }
    </style>
  </defs>
  <g class="cls-1">
    <g id="Layer_1" data-name="Layer 1">
      <circle class="cls-8" cx="360.54" cy="677.42" r="261.42"/>
      <circle class="cls-2" cx="708.59" cy="674.42" r="261.42"/>
      <path class="cls-7" d="m446.84,675.45c0,78.5,34.7,147.53,89.41,195.53,52.75-47.91,86.04-115.54,86.04-192.41s-34.87-149.04-89.58-197.05c-52.75,47.91-85.87,117.05-85.87,193.92Z"/>
      <circle class="cls-4" cx="535.24" cy="372.51" r="261.42"/>
      <path class="cls-4" d="m533.81,481.52c-40,36.33-69.79,84.19-81.27,139.06,25.94,8.62,54.8,14.01,83.63,14.01s55.25-4.47,80.65-12.7c-12.14-55.42-41.85-104.26-83.01-140.37Z"/>
      <path class="cls-5" d="m452.54,620.59c26.06,8.66,53.36,14.39,82.34,14.39,126.54,0,231.33-89.55,256.25-208.69-26.06-8.66-53.1-13.29-82.07-13.29-126.54,0-231.59,88.45-256.51,207.59Z"/>
      <path class="cls-6" d="m279.81,429.09c25.71,117.37,130.56,204.8,255.65,204.8,28.15,0,55.23-3.09,80.63-11.32-25.71-117.37-130.24-206.62-255.33-206.62-28.15,0-55.55,4.9-80.95,13.14Z"/>
      <path class="cls-3" d="m533.12,480.06c-40.21,36.53-69.05,85.35-80.59,140.53,26.08,8.67,53.71,14.39,82.7,14.39s55.37-4.54,80.91-12.82c-12.21-55.72-41.64-105.79-83.03-142.1Z"/>
    </g>
  </g>
</svg>