<?xml version="1.0" encoding="UTF-8"?>
<svg id="Layer_1" data-name="Layer 1" xmlns="http://www.w3.org/2000/svg" viewBox="0 0 122.88 122.88">
  <defs>
    <style>
      .cls-1 {
        fill-rule: evenodd;
        stroke-width: 0px;
      }
    </style>
  </defs>
  <path class="cls-1" d="m88.76,114.74H31.4c-3.95,0-7.16-3.21-7.16-7.16V27.05c0-3.95,3.21-7.16,7.16-7.16h12.28c.69,0,1.25.56,1.25,1.25s-.56,1.25-1.25,1.25h-12.28c-2.57,0-4.66,2.09-4.66,4.66v80.53c0,2.57,2.09,4.66,4.66,4.66h57.36c2.57,0,4.66-2.09,4.66-4.66v-8.27c0-.69.56-1.25,1.25-1.25s1.25.56,1.25,1.25v8.27c0,3.95-3.21,7.16-7.16,7.16Zm5.91-36.08c-.69,0-1.25-.56-1.25-1.25V27.05c0-2.57-2.09-4.66-4.66-4.66h-12.28c-.69,0-1.25-.56-1.25-1.25s.56-1.25,1.25-1.25h12.28c3.95,0,7.16,3.21,7.16,7.16v50.36c0,.69-.56,1.25-1.25,1.25h0Z"/>
  <path class="cls-1" d="m74.46,28.9h-28.76c-1.8,0-3.27-1.47-3.27-3.27v-7.31c0-1.8,1.47-3.27,3.27-3.27h6.31c.6-3.91,3.99-6.92,8.07-6.92s7.47,3,8.07,6.92h6.31c1.8,0,3.27,1.47,3.27,3.27v7.31c0,1.8-1.47,3.27-3.27,3.27h0Zm-28.76-11.35c-.42,0-.77.35-.77.77v7.31c0,.42.35.77.77.77h28.76c.42,0,.77-.35.77-.77v-7.31c0-.42-.35-.77-.77-.77h-7.47c-.69,0-1.25-.56-1.25-1.25,0-3.12-2.54-5.66-5.67-5.66s-5.67,2.54-5.67,5.67c0,.69-.56,1.25-1.25,1.25h-7.46s0,0,0,0Z"/>
  <path class="cls-1" d="m45.8,56.21h-13.01c-.69,0-1.25-.56-1.25-1.25v-12.49c0-.69.56-1.25,1.25-1.25h13.01c.69,0,1.25.56,1.25,1.25v12.49c0,.69-.56,1.25-1.25,1.25Zm-11.76-2.5h10.51v-9.99h-10.51v9.99Z"/>
  <path class="cls-1" d="m45.8,78.07h-13.01c-.69,0-1.25-.56-1.25-1.25v-12.49c0-.69.56-1.25,1.25-1.25h13.01c.69,0,1.25.56,1.25,1.25v12.49c0,.69-.56,1.25-1.25,1.25Zm-11.76-2.5h10.51v-9.99h-10.51v9.99Z"/>
  <path class="cls-1" d="m45.8,99.93h-13.01c-.69,0-1.25-.56-1.25-1.25v-12.49c0-.69.56-1.25,1.25-1.25h13.01c.69,0,1.25.56,1.25,1.25v12.49c0,.69-.56,1.25-1.25,1.25Zm-11.76-2.5h10.51v-9.99h-10.51v9.99Z"/>
  <path class="cls-1" d="m82.34,56.21h-30.43c-.69,0-1.25-.56-1.25-1.25s.56-1.25,1.25-1.25h30.43c.69,0,1.25.56,1.25,1.25s-.56,1.25-1.25,1.25Z"/>
  <path class="cls-1" d="m82.34,78.07h-30.43c-.69,0-1.25-.56-1.25-1.25s.56-1.25,1.25-1.25h30.43c.69,0,1.25.56,1.25,1.25s-.56,1.25-1.25,1.25Z"/>
  <path class="cls-1" d="m82.34,99.93h-30.43c-.69,0-1.25-.56-1.25-1.25s.56-1.25,1.25-1.25h30.43c.69,0,1.25.56,1.25,1.25s-.56,1.25-1.25,1.25Z"/>
  <path class="cls-1" d="m38.37,51.71h-.02c-.34,0-.66-.15-.89-.4l-1.67-1.81c-.47-.51-.43-1.3.07-1.77.51-.47,1.3-.43,1.77.07l.79.85,2.59-2.59c.49-.49,1.28-.49,1.77,0,.49.49.49,1.28,0,1.77l-3.51,3.51c-.23.23-.55.37-.88.37h0Z"/>
  <path class="cls-1" d="m38.37,73.57s-.02,0-.02,0c-.34,0-.66-.15-.89-.4l-1.67-1.81c-.47-.51-.43-1.3.07-1.76.51-.47,1.3-.44,1.77.07l.79.85,2.59-2.59c.49-.49,1.28-.49,1.77,0,.49.49.49,1.28,0,1.77l-3.51,3.51c-.23.23-.55.37-.88.37h0Z"/>
  <path class="cls-1" d="m38.37,95.43s-.02,0-.02,0c-.34,0-.66-.15-.89-.4l-1.67-1.81c-.47-.51-.43-1.3.07-1.76.51-.47,1.3-.44,1.77.07l.79.85,2.59-2.59c.49-.49,1.28-.49,1.77,0,.49.49.49,1.28,0,1.77l-3.51,3.51c-.23.23-.55.37-.88.37h0Z"/>
  <path class="cls-1" d="m60.08,20.49c-2.15,0-3.9-1.75-3.9-3.89s1.75-3.9,3.9-3.9,3.89,1.75,3.89,3.9-1.75,3.89-3.89,3.89Zm0-5.29c-.77,0-1.4.63-1.4,1.4s.63,1.4,1.4,1.4,1.4-.63,1.4-1.4c0-.77-.63-1.4-1.4-1.4Z"/>
  <path class="cls-1" d="m94.68,100.56c-6.73,0-12.2-5.47-12.2-12.2s5.47-12.2,12.2-12.2,12.2,5.47,12.2,12.2-5.47,12.2-12.2,12.2Zm0-21.9c-5.35,0-9.7,4.35-9.7,9.7s4.35,9.7,9.7,9.7,9.7-4.35,9.7-9.7-4.35-9.7-9.7-9.7Z"/>
  <path class="cls-1" d="m92.88,93.04s-.02,0-.02,0c-.34,0-.66-.15-.89-.4l-3.27-3.55c-.47-.51-.43-1.3.07-1.77.51-.47,1.3-.44,1.77.07l2.39,2.59,5.94-5.94c.49-.49,1.28-.49,1.77,0,.49.49.49,1.28,0,1.77l-6.86,6.86c-.23.24-.55.37-.88.37h0Z"/>
</svg>